<?xml version="1.0" standalone="no"?>
<!DOCTYPE svg PUBLIC "-//W3C//DTD SVG 20010904//EN"
 "http://www.w3.org/TR/2001/REC-SVG-20010904/DTD/svg10.dtd">
<svg version="1.0" xmlns="http://www.w3.org/2000/svg"
 width="1080.000000pt" height="1080.000000pt" viewBox="0 0 1080.000000 1080.000000"
 preserveAspectRatio="xMidYMid meet">

<g transform="translate(0.000000,1080.000000) scale(0.100000,-0.100000)"
fill="#000000" stroke="none">
<path d="M4629 9750 c-8 -5 -43 -13 -76 -19 -92 -15 -196 -68 -355 -184 -20
-15 -49 -22 -110 -25 -46 -3 -92 -10 -103 -17 -11 -7 -41 -18 -67 -24 -74 -17
-193 -96 -253 -166 -90 -105 -98 -213 -23 -305 15 -19 28 -38 28 -42 0 -20
-26 -4 -62 37 -37 43 -43 45 -92 45 -49 0 -55 -3 -96 -46 -25 -25 -67 -59 -95
-76 -142 -84 -238 -184 -301 -313 -50 -103 -55 -148 -25 -217 23 -52 92 -121
144 -143 43 -18 70 -61 47 -75 -8 -5 -33 -12 -55 -15 -22 -3 -49 -10 -60 -15
-11 -5 -81 -16 -155 -24 -156 -18 -205 -41 -252 -116 -53 -86 -58 -121 -37
-249 13 -82 30 -121 85 -192 62 -81 63 -95 12 -150 -32 -34 -54 -48 -82 -53
-54 -10 -102 -50 -127 -105 -19 -40 -22 -64 -21 -181 0 -145 4 -163 74 -295
48 -91 181 -216 277 -261 19 -9 59 -18 88 -21 l53 -6 1 -61 c0 -34 4 -140 8
-236 7 -165 10 -178 35 -220 42 -72 67 -96 133 -129 58 -29 70 -31 168 -31 58
0 113 4 123 9 34 19 90 41 101 41 6 0 20 5 31 12 28 18 33 6 21 -52 -14 -66
-14 -162 0 -210 12 -38 109 -150 164 -187 17 -11 64 -35 105 -52 61 -25 88
-31 150 -31 67 0 80 4 120 30 46 31 93 66 114 86 7 6 27 15 46 19 18 4 53 18
78 31 25 13 61 24 81 24 38 0 81 -23 81 -42 0 -23 65 -143 88 -165 32 -30 85
-30 133 0 20 12 65 54 101 93 l65 71 15 -26 c9 -14 18 -39 22 -56 7 -30 39
-106 57 -135 5 -8 18 -32 29 -53 11 -20 44 -71 73 -113 28 -41 57 -83 62 -92
6 -9 31 -44 58 -79 26 -34 47 -65 47 -68 0 -3 23 -35 50 -70 28 -35 50 -69 50
-74 0 -5 8 -16 18 -23 10 -7 38 -38 62 -68 57 -70 207 -237 282 -315 53 -54
58 -63 58 -103 0 -44 -15 -120 -30 -157 -5 -11 -11 -33 -15 -50 -4 -16 -15
-48 -26 -72 -10 -23 -19 -48 -19 -55 0 -7 -11 -35 -25 -63 -13 -27 -25 -55
-25 -62 0 -14 -63 -133 -99 -188 -15 -22 -34 -56 -44 -75 -55 -109 -104 -170
-212 -258 -113 -93 -142 -122 -179 -181 -11 -19 -29 -46 -38 -60 -21 -30 -38
-68 -38 -82 0 -6 -9 -28 -19 -50 -11 -22 -23 -54 -26 -72 -4 -18 -16 -49 -25
-70 -10 -21 -22 -52 -25 -70 -4 -18 -13 -41 -19 -52 -7 -11 -19 -38 -26 -60
-7 -22 -16 -45 -21 -51 -5 -6 -15 -30 -24 -53 -8 -23 -32 -78 -53 -124 -22
-45 -45 -104 -52 -132 -6 -27 -17 -61 -23 -74 -7 -14 -12 -75 -12 -150 0 -125
0 -126 31 -171 47 -66 154 -179 197 -207 21 -13 76 -37 122 -53 l83 -30 301 0
c201 0 309 4 328 11 17 7 166 16 388 22 383 10 348 12 644 -37 52 -9 99 -20
105 -24 6 -5 32 -14 58 -21 43 -10 225 -98 256 -123 15 -13 64 -41 109 -62 18
-9 61 -35 95 -58 121 -80 134 -88 145 -88 7 0 18 -6 26 -14 8 -8 43 -26 77
-40 122 -50 235 -24 293 66 43 67 44 81 4 141 -19 29 -58 91 -86 137 -28 47
-54 90 -58 95 -5 6 -26 37 -48 70 -22 33 -44 65 -48 70 -4 6 -22 33 -40 61
-70 110 -121 168 -352 405 -95 96 -183 196 -198 223 -26 47 -49 142 -67 281
-6 39 -10 203 -11 366 -2 259 0 304 16 350 61 186 52 181 240 150 184 -29 483
6 614 73 30 16 75 49 100 75 38 39 50 61 69 127 13 43 32 104 43 134 11 30 25
69 30 87 9 30 12 31 34 21 20 -9 31 -6 67 17 56 35 88 90 88 150 0 39 4 47 25
57 31 14 65 66 65 99 0 26 -36 85 -78 131 -13 15 -22 33 -19 41 3 8 43 29 89
47 106 41 128 64 128 133 0 33 -7 62 -18 78 -9 15 -26 39 -36 55 -27 41 -100
154 -118 184 -38 63 -40 225 -5 332 14 40 37 114 52 163 15 50 36 114 46 142
29 77 55 152 69 198 17 52 18 332 2 362 -8 15 -12 106 -12 299 0 252 -2 284
-21 343 -35 113 -96 216 -184 307 -11 12 -47 49 -80 84 -33 34 -75 74 -95 89
-19 14 -37 29 -40 32 -3 3 -20 14 -37 23 -18 9 -33 21 -33 26 0 5 -10 12 -22
15 -13 4 -32 15 -43 25 -21 18 -49 34 -125 71 -24 12 -50 28 -58 35 -7 8 -18
14 -24 14 -14 0 -140 63 -156 78 -7 6 -19 12 -26 12 -6 0 -30 9 -51 21 -41 21
-171 59 -282 83 -35 8 -75 18 -90 24 -16 6 -79 18 -141 27 -63 8 -122 20 -132
25 -10 6 -35 10 -54 10 -46 0 -46 13 2 32 20 8 62 25 92 38 30 12 74 28 97 35
23 8 50 22 61 32 11 10 40 35 65 56 25 21 61 64 79 95 32 57 33 58 32 187 0
127 -1 132 -32 193 -37 71 -131 171 -180 191 -26 11 -38 11 -59 2 -14 -6 -27
-10 -30 -8 -2 3 1 24 7 49 6 24 10 94 8 158 -6 198 -70 365 -165 437 -21 15
-44 33 -50 40 -22 20 -127 55 -153 50 -97 -19 -209 -65 -252 -104 -17 -15 -18
-14 -18 32 0 53 -43 152 -85 198 -49 52 -125 53 -195 2 -19 -14 -39 -25 -45
-25 -7 0 -22 -9 -35 -20 -13 -11 -27 -20 -32 -20 -5 0 -24 -11 -42 -25 -18
-14 -35 -25 -38 -25 -3 0 -1 20 5 44 8 38 7 50 -12 90 -13 25 -27 46 -32 46
-5 0 -17 8 -27 18 -11 11 -47 33 -82 50 l-63 32 -221 0 -221 0 -45 -30 c-55
-36 -60 -37 -91 -4 -13 14 -50 39 -83 55 -58 29 -59 29 -235 29 -97 0 -183 -5
-192 -10z m385 -37 c57 -21 128 -80 145 -122 11 -25 10 -35 -8 -70 -43 -83 -9
-149 46 -88 30 34 33 51 12 83 -34 52 -24 93 29 126 35 22 49 23 255 26 l219
4 64 -33 c78 -39 124 -87 124 -130 0 -17 -16 -60 -36 -95 -59 -105 -35 -133
48 -57 84 77 268 193 307 193 72 0 144 -108 145 -218 1 -83 17 -94 77 -50 78
57 166 92 233 92 103 1 203 -70 261 -184 58 -114 79 -299 54 -462 -12 -77 -4
-95 36 -82 72 22 82 19 145 -44 75 -75 106 -140 119 -251 17 -135 -13 -226
-104 -310 -50 -46 -79 -60 -317 -151 -109 -41 -168 -69 -168 -78 0 -11 9 -13
38 -9 99 12 611 -91 809 -163 130 -48 414 -200 564 -302 145 -98 325 -291 378
-403 57 -119 63 -163 64 -470 2 -203 5 -286 15 -302 8 -14 12 -65 12 -148 0
-137 -3 -149 -95 -415 -85 -244 -115 -361 -115 -441 0 -112 21 -166 121 -317
81 -122 90 -139 87 -176 -3 -36 -8 -43 -43 -63 -22 -13 -64 -30 -93 -38 -59
-18 -92 -45 -92 -76 0 -11 20 -44 44 -71 25 -28 47 -62 51 -76 9 -35 -13 -80
-47 -98 -34 -17 -48 -49 -48 -105 0 -22 -5 -49 -10 -60 -16 -28 -60 -47 -101
-42 -22 3 -39 0 -45 -9 -14 -18 -82 -224 -89 -269 -7 -47 -52 -109 -107 -147
-117 -81 -465 -127 -648 -87 -36 8 -87 14 -113 15 -42 0 -53 -5 -77 -30 -35
-37 -76 -139 -90 -222 -12 -78 -13 -449 0 -620 11 -151 40 -281 78 -352 17
-32 96 -122 213 -241 216 -222 263 -277 369 -435 171 -255 271 -423 266 -444
-27 -101 -147 -154 -252 -110 -21 9 -68 35 -104 58 -160 104 -473 284 -555
319 -96 42 -231 75 -410 102 -97 15 -150 15 -455 6 -190 -6 -383 -15 -429 -20
-46 -5 -199 -11 -340 -13 -280 -3 -294 -1 -421 62 -60 31 -195 162 -224 218
-26 51 -31 153 -12 254 17 89 25 111 139 373 36 83 93 227 127 320 33 93 75
196 93 229 42 79 120 162 227 242 85 64 89 69 181 222 112 189 154 272 209
417 56 148 90 278 90 348 l0 58 -126 132 c-165 173 -263 292 -436 534 -169
236 -233 344 -283 478 -37 101 -62 140 -80 127 -5 -4 -43 -44 -83 -89 -132
-148 -184 -152 -242 -16 -41 98 -77 133 -138 133 -61 0 -190 -58 -278 -125
-87 -67 -119 -79 -187 -71 -107 14 -183 52 -265 130 -100 96 -125 170 -97 278
28 104 28 105 6 127 -19 19 -22 20 -73 5 -29 -9 -66 -24 -83 -34 -41 -25 -161
-40 -236 -30 -75 11 -131 47 -171 110 -43 67 -47 95 -56 343 l-7 228 -65 3
c-74 3 -105 16 -202 88 -95 70 -161 167 -209 307 -29 83 -26 224 5 294 27 62
28 63 116 97 52 21 72 35 103 75 49 64 45 93 -23 183 -50 66 -58 87 -79 190
-20 100 -10 148 52 236 29 41 69 54 237 77 211 28 280 55 280 108 0 39 -25 67
-90 99 -72 36 -130 115 -130 178 0 103 139 295 283 391 39 26 93 67 119 90 27
23 60 46 73 49 34 9 78 -11 104 -47 26 -35 82 -65 105 -56 29 11 18 61 -29
133 -66 99 -61 149 23 253 46 56 167 135 232 151 27 7 53 16 56 21 3 5 29 9
58 9 78 0 144 24 232 84 130 88 227 132 333 150 52 9 97 18 99 21 3 3 62 5
131 5 95 0 138 -4 175 -17z m176 -237 c0 -3 -4 -8 -10 -11 -5 -3 -10 -1 -10 4
0 6 5 11 10 11 6 0 10 -2 10 -4z"/>
<path d="M6568 7341 c-49 -10 -115 -40 -153 -68 -27 -20 -39 -22 -100 -17
-184 15 -414 -87 -486 -216 -15 -26 -31 -40 -50 -44 -38 -7 -108 -79 -138
-141 -19 -37 -26 -71 -28 -130 -2 -44 -6 -116 -9 -160 -7 -101 5 -149 53 -205
46 -53 143 -117 199 -131 40 -10 42 -13 47 -56 3 -26 13 -54 26 -67 31 -33
116 -72 189 -87 47 -10 62 -17 60 -28 -3 -16 -109 -74 -178 -98 -24 -9 -31
-16 -24 -23 14 -14 98 17 174 62 94 57 131 141 93 207 -11 20 -28 40 -36 45
-28 18 -30 -2 -3 -37 28 -37 34 -88 13 -106 -20 -16 -130 4 -194 35 -62 30
-95 68 -91 103 3 24 6 26 51 23 36 -3 47 0 47 11 0 11 -16 17 -52 22 -174 22
-281 87 -336 204 -21 45 -24 63 -19 115 17 174 104 256 275 258 96 1 165 -14
262 -59 113 -53 260 -57 260 -7 0 12 -4 14 -17 8 -10 -5 -52 -9 -93 -9 -57 0
-83 5 -104 18 l-27 18 25 24 c47 43 54 91 24 168 -6 15 -14 27 -19 27 -17 0
-19 -21 -5 -42 18 -26 21 -80 5 -110 -6 -11 -26 -26 -44 -34 -30 -12 -42 -11
-111 6 -149 38 -284 21 -362 -46 -22 -19 -43 -34 -47 -34 -13 0 7 75 32 123
28 51 72 89 129 113 29 12 46 13 90 4 66 -14 68 -14 72 -2 3 11 -51 32 -84 32
-40 0 -36 18 12 70 52 56 160 113 254 136 115 28 279 12 368 -37 43 -22 62
-24 62 -5 0 13 -97 56 -126 56 -25 0 -15 28 19 47 72 43 177 54 264 28 48 -14
173 -96 173 -113 0 -4 -18 -19 -40 -32 -22 -14 -40 -31 -40 -37 0 -19 15 -16
55 11 39 27 127 56 169 56 91 0 180 -47 230 -121 32 -47 66 -152 66 -203 0
-23 3 -51 6 -63 11 -40 24 -25 24 28 0 51 0 51 28 45 116 -29 235 -127 285
-236 26 -57 30 -77 31 -160 1 -84 -2 -102 -27 -154 -57 -122 -137 -197 -242
-227 -76 -21 -251 -17 -358 9 -135 33 -132 31 -97 101 24 47 30 71 30 123 0
94 -16 133 -101 243 -28 36 -30 45 -26 90 3 28 9 65 13 83 4 21 3 32 -5 32
-16 0 -32 -47 -35 -105 -2 -27 -7 -50 -12 -49 -5 0 -27 8 -49 18 -75 35 -209
47 -191 18 3 -5 33 -12 67 -16 129 -13 243 -94 294 -209 31 -71 31 -125 2
-194 -71 -163 -235 -227 -432 -167 -104 31 -194 101 -261 204 -23 36 -58 82
-79 102 -45 46 -133 87 -205 96 l-54 7 2 45 c3 48 -9 77 -26 66 -6 -4 -8 -22
-5 -42 8 -47 -11 -80 -64 -111 -24 -14 -43 -29 -43 -35 0 -16 49 0 87 29 30
23 39 25 89 19 108 -12 230 -100 282 -203 27 -51 94 -116 160 -154 28 -17 52
-35 52 -40 0 -29 -195 -153 -340 -216 -72 -31 -90 -45 -73 -56 12 -8 258 112
323 157 30 21 71 54 91 73 l36 35 62 -13 c122 -24 244 -1 329 60 l34 24 71
-21 c111 -32 182 -42 291 -42 197 0 318 69 393 221 85 173 54 368 -81 503 -55
54 -88 74 -189 110 l-60 21 -23 68 c-41 123 -108 193 -213 224 -51 14 -85 14
-166 -2 -25 -5 -37 0 -71 32 -68 64 -153 104 -231 108 -38 2 -85 0 -105 -4z"/>
<path d="M7056 7016 c-22 -53 -56 -71 -110 -57 -78 19 -156 14 -215 -15 -28
-15 -53 -25 -54 -23 -1 2 -9 18 -18 34 -20 36 -91 75 -137 75 -45 0 -37 -23
10 -31 52 -8 100 -40 111 -73 9 -26 6 -32 -17 -52 -27 -24 -34 -44 -15 -44 6
0 31 17 57 38 69 57 117 76 192 76 58 0 75 -5 143 -41 49 -27 79 -38 83 -31 4
6 1 14 -7 19 -8 4 -23 14 -34 23 -20 14 -20 15 7 43 30 31 45 77 29 87 -6 4
-17 -8 -25 -28z"/>
<path d="M7207 6833 c-4 -3 -7 -23 -7 -44 0 -46 -36 -93 -85 -109 -19 -6 -35
-18 -35 -26 0 -19 16 -18 60 7 26 15 47 20 64 15 36 -9 96 -65 113 -104 18
-44 18 -149 -1 -240 -19 -88 -19 -82 -2 -82 9 0 19 29 31 91 15 76 20 89 34
83 9 -4 36 -14 60 -22 41 -14 47 -14 80 4 37 20 82 87 67 101 -5 4 -13 -1 -20
-12 -6 -10 -24 -32 -39 -48 -24 -25 -33 -29 -65 -23 -20 3 -48 14 -62 24 -25
19 -32 33 -51 110 -12 50 -65 114 -110 132 -25 11 -29 17 -24 34 20 61 15 132
-8 109z"/>
<path d="M6538 6560 c-9 -92 -81 -136 -172 -105 -54 19 -74 2 -23 -20 47 -20
126 -19 155 0 40 29 123 3 179 -57 29 -31 63 -108 63 -144 0 -9 6 -14 13 -11
18 6 9 64 -20 122 -27 56 -94 110 -151 121 -31 6 -32 8 -25 43 11 54 9 94 -3
98 -7 2 -13 -16 -16 -47z"/>
</g>
</svg>
